<?xml version="1.0" encoding="UTF-8"?>
<svg width="14px" height="14px" viewBox="0 0 14 14" version="1.1" xmlns="http://www.w3.org/2000/svg" xmlns:xlink="http://www.w3.org/1999/xlink">
    <!-- Generator: Sketch 50.2 (55047) - http://www.bohemiancoding.com/sketch -->
    <title>icons/leyenda/pois/museo-white</title>
    <desc>Created with Sketch.</desc>
    <defs></defs>
    <g id="icons/leyenda/pois/museo-white" stroke="none" stroke-width="1" fill="none" fill-rule="evenodd">
        <path d="M7,1 L0,5 L0,5.999 L1,5.999 L1,12 L0,12 L0,13 L1,13 L12.999,13 L14,13 L14,12 L12.999,12 L12.999,5.999 L14,5.999 L14,4.999 L7,1 Z M7,2.152 L11.986,5 L2.016,5 L7,2.152 Z M10.25,11.999 L12,11.999 L12,5.999 L10.25,5.999 L10.25,11.999 Z M7.499,11.999 L9.25,11.999 L9.25,5.999 L7.499,5.999 L7.499,11.999 Z M4.75,11.999 L6.5,11.999 L6.5,5.999 L4.75,5.999 L4.75,11.999 Z M2,11.999 L3.751,11.999 L3.751,5.999 L2,5.999 L2,11.999 Z" id="Page-1" fill="#FFFFFF"></path>
    </g>
</svg>