<?xml version="1.0" encoding="UTF-8"?>
<svg width="46px" height="46px" viewBox="0 0 46 46" version="1.1" xmlns="http://www.w3.org/2000/svg" xmlns:xlink="http://www.w3.org/1999/xlink">
    <!-- Generator: Sketch 50.2 (55047) - http://www.bohemiancoding.com/sketch -->
    <title>icons/verticales/turismo</title>
    <desc>Created with Sketch.</desc>
    <defs></defs>
    <g id="icons/verticales/turismo" stroke="none" stroke-width="1" fill="none" fill-rule="evenodd">
        <g id="Page-1" transform="translate(14.000000, 3.000000)" fill="#FFFFFF">
            <path d="M13.3333333,13.3333333 L4.44444444,13.3333333 C1.99,13.3333333 0,15.3233333 0,17.7777778 L0,31.1111111 C0,33.5655556 1.99,35.5555556 4.44444444,35.5555556 L13.3333333,35.5555556 C15.7877778,35.5555556 17.7777778,33.5655556 17.7777778,31.1111111 L17.7777778,17.7777778 C17.7777778,15.3233333 15.7877778,13.3333333 13.3333333,13.3333333 M13.3333333,15.5555556 C14.5577778,15.5555556 15.5555556,16.5511111 15.5555556,17.7777778 L15.5555556,31.1111111 C15.5555556,32.3377778 14.5577778,33.3333333 13.3333333,33.3333333 L4.44444444,33.3333333 C3.22,33.3333333 2.22222222,32.3377778 2.22222222,31.1111111 L2.22222222,17.7777778 C2.22222222,16.5511111 3.22,15.5555556 4.44444444,15.5555556 L13.3333333,15.5555556" id="Fill-1"></path>
            <path d="M3.33333333,35.5555556 C2.10555556,35.5555556 1.11111111,36.55 1.11111111,37.7777778 C1.11111111,39.0055556 2.10555556,40 3.33333333,40 C4.56111111,40 5.55555556,39.0055556 5.55555556,37.7777778 C5.55555556,36.55 4.56111111,35.5555556 3.33333333,35.5555556" id="Fill-3"></path>
            <path d="M14.4444444,35.5555556 C13.2177778,35.5555556 12.2222222,36.55 12.2222222,37.7777778 C12.2222222,39.0055556 13.2177778,40 14.4444444,40 C15.6722222,40 16.6666667,39.0055556 16.6666667,37.7777778 C16.6666667,36.55 15.6722222,35.5555556 14.4444444,35.5555556" id="Fill-5"></path>
            <path d="M10,0 L7.77777778,0 C6.55111111,0 5.55555556,0.994444444 5.55555556,2.22222222 L5.55555556,15.5555556 C5.55555556,16.7833333 6.55111111,17.7777778 7.77777778,17.7777778 L10,17.7777778 C11.2277778,17.7777778 12.2222222,16.7833333 12.2222222,15.5555556 L12.2222222,2.22222222 C12.2222222,0.994444444 11.2277778,0 10,0 M11.11,2.22222222 L11.11,14.4444444 L6.66555556,14.4444444 L6.66555556,2.22222222 L10,2.22222222" id="Fill-7"></path>
            <polygon id="Fill-9" points="2.22222222 25.5555556 15.5555556 25.5555556 15.5555556 24.4444444 2.22222222 24.4444444"></polygon>
            <polygon id="Fill-11" points="4.44444444 22.2222222 8.88888889 22.2222222 8.88888889 20 4.44444444 20"></polygon>
        </g>
    </g>
</svg>